<svg xmlns="http://www.w3.org/2000/svg" viewBox="0 0 24 24" fill="none" class="css-1sm7ur8"><path d="M15.914 14.5v5L12 23.415l-2.5-2.5 6.414-6.415zM.586 12l4-4h5l-6.5 6.5-2.5-2.5z" fill="#76808F"></path><path fill-rule="evenodd" clip-rule="evenodd" d="M22 2h-3.929a6 6 0 00-4.242 1.757L3.086 14.5 9.5 20.914l10.743-10.743A6 6 0 0022 5.93V2zm-6.5 4a2.5 2.5 0 110 5 2.5 2.5 0 010-5z" fill="url(#launchpad-g_svg__paint0_linear)"></path><path fill-rule="evenodd" clip-rule="evenodd" d="M3.293 19.293l7-7 1.414 1.414-7 7-1.414-1.414z" fill="#76808F"></path><defs><linearGradient id="launchpad-g_svg__paint0_linear" x1="12.543" y1="20.914" x2="12.543" y2="2" gradientUnits="userSpaceOnUse"><stop stop-color="#F0B90B"></stop><stop offset="1" stop-color="#F8D33A"></stop></linearGradient></defs></svg>