<svg xmlns="http://www.w3.org/2000/svg" viewBox="0 0 24 24" fill="none" class="css-1sm7ur8">
    <path d="M7.5 2.5l-2 2L4 3l2-2 1.5 1.5z" fill="#76808F"></path>
    <path fill-rule="evenodd" clip-rule="evenodd"
          d="M12 20a5 5 0 01-3.536-8.536l1.243-1.242-1.414-1.414L7.05 10.05A7 7 0 0012 22v-2z" fill="#76808F"></path>
    <path d="M13 20h9v-2h-9v2zM4 20h18v2H4v-2z" fill="#76808F"></path>
    <path d="M16 8l-5 5-7-7 5-5 7 7z" fill="url(#research-g_svg__paint0_linear)"></path>
    <path d="M10.585 12.585l5-5L17 9l-5 5-1.414-1.415z" fill="#76808F"></path>
    <path d="M19.035 12.5a2.5 2.5 0 10-3.535 3.536 2.5 2.5 0 003.535-3.536z"
          fill="url(#research-g_svg__paint1_linear)"></path>
    <defs>
        <linearGradient id="research-g_svg__paint0_linear" x1="13.5" y1="10.5" x2="6.5" y2="3.5"
                        gradientUnits="userSpaceOnUse">
            <stop stop-color="#F0B90B"></stop>
            <stop offset="1" stop-color="#F8D33A"></stop>
        </linearGradient>
        <linearGradient id="research-g_svg__paint1_linear" x1="19.035" y1="16.035" x2="15.5" y2="12.5"
                        gradientUnits="userSpaceOnUse">
            <stop stop-color="#F0B90B"></stop>
            <stop offset="1" stop-color="#F8D33A"></stop>
        </linearGradient>
    </defs>
</svg>